<?xml version="1.0" encoding="UTF-8" standalone="no"?>
<!-- Created with Inkscape (http://www.inkscape.org/) -->

<svg
   version="1.1"
   id="svg25"
   width="229"
   height="229"
   viewBox="5 0 229 229"
   xmlns="http://www.w3.org/2000/svg"
   xmlns:svg="http://www.w3.org/2000/svg">
  <defs
     id="defs29">
    <rect
       x="-91.316406"
       y="-141.67969"
       width="717.86328"
       height="233.78516"
       id="rect4946" />
  </defs>
  <g
     id="g31">
    <g
       id="g956-3-4"
       transform="matrix(0.70280292,0,0,0.70280292,377.8885,-163.11216)"
       style="fill:#000000;fill-opacity:1;stroke:#000000;stroke-width:2;stroke-dasharray:none;stroke-opacity:1">
      <path
         id="path631-7-6-7"
         style="fill:#000000;fill-opacity:1;stroke:#000000;stroke-width:1.81584;stroke-dasharray:none;stroke-opacity:1"
         d="m -543.048,-82.267205 -44.87468,26.450276 0.46992,52.088388 45.3446,25.636339 44.8729,-26.4502754 -0.46814,-52.0883886 z m -34.08071,43.589047 c 28.0083,5.751843 44.6508,15.903527 59.43864,33.0841243 l -8.13759,3.9508725 C -541.95175,-18.60889 -554.70049,-24.879814 -577.21737,-29.978436 Z"
         transform="matrix(1.1014181,0,0,1.1014181,284.80355,330.33303)" />
      <path
         id="path631-7-5-0-8"
         style="fill:#000000;fill-opacity:1;stroke:#000000;stroke-width:1.81584;stroke-dasharray:none;stroke-opacity:1"
         d="m -543.0485,-82.266745 -44.8729,26.450276 0.46992,52.086615 45.34282,25.638113 44.87468,-26.4520495 -0.46992,-52.0866155 z m -9.66439,18.816296 c 8.68897,27.24061 7.97946,46.723252 0.2323,68.0266483 l -7.42828,-5.16557074 c 6.90592,-22.36360156 6.13889,-36.54956856 -0.43268,-58.68145156 z"
         transform="matrix(1.1014181,0,0,1.1014181,340.5541,426.04932)" />
      <path
         id="path631-7-5-9-6-4"
         style="fill:#000000;fill-opacity:1;stroke:#000000;stroke-width:1.81584;stroke-dasharray:none;stroke-opacity:1"
         d="m -543.04881,-82.267683 -44.8729,26.452049 0.46992,52.0866152 45.34282,25.6363398 44.87468,-26.4502762 -0.46992,-52.0866148 z m 10.35242,16.635159 7.42828,5.165571 c -6.90591,22.363602 -6.13711,36.549569 0.43446,58.6814514 l -7.63044,4.1796259 c -8.68897,-27.2406093 -7.97945,-46.7232513 -0.2323,-68.0266483 z"
         transform="matrix(1.1014181,0,0,1.1014181,118.68139,426.57965)" />
      <path
         id="path631-7-5-3-26-5"
         style="fill:#000000;fill-opacity:1;stroke:#000000;stroke-width:1.81584;stroke-dasharray:none;stroke-opacity:1"
         d="m -543.04773,-82.267366 -44.87467,26.450276 0.46992,52.0883885 45.34459,25.6363395 44.87291,-26.450276 -0.46992,-52.088388 z m 34.58255,42.592463 -0.65079,9.024233 c -22.75667,5.473247 -34.56443,13.372257 -50.24418,30.31780367 l -7.48857,-4.42788537 c 18.99268,-21.3735063 36.10935,-30.7053903 58.38354,-34.9141513 z"
         transform="matrix(1.1014181,0,0,1.1014181,174.0552,330.89766)" />
      <path
         id="path631-7-56-1-0"
         style="fill:#000000;fill-opacity:1;stroke:#000000;stroke-width:1.81584;stroke-dasharray:none;stroke-opacity:1"
         d="m -543.04764,-82.2665 -44.87467,26.450276 0.46992,52.0866151 45.34459,25.6363389 44.87291,-26.4502754 -0.46992,-52.0866146 z m 17.31788,21.761718 7.48857,4.429659 c -18.99268,21.373506 -36.10935,30.703617 -58.38354,34.912378 l 0.65079,-9.02246 c 22.75667,-5.473247 34.56443,-13.374031 50.24418,-30.319577 z"
         transform="matrix(1.1014181,0,0,1.1014181,285.18596,521.7678)" />
      <path
         id="path631-7-5-3-2-8-3"
         style="fill:#000000;fill-opacity:1;stroke:#000000;stroke-width:1.81584;stroke-dasharray:none;stroke-opacity:1"
         d="m -543.04736,-82.26666 -44.87468,26.450275 0.46992,52.0866155 45.3446,25.6381125 44.8729,-26.452049 -0.46992,-52.086615 z m -15.99855,22.706877 c 16.12409,16.965729 28.87106,23.238426 51.38794,28.337048 l -0.0869,8.699722 c -28.0083,-5.751843 -44.65258,-15.9053 -59.44042,-33.085898 z"
         transform="matrix(1.1014181,0,0,1.1014181,174.43761,522.33243)" />
    </g>
    <g
       aria-label="Bee-Ring"
       transform="matrix(0.33469337,0,0,0.33469337,155.85204,61.439709)"
       id="text4944"
       style="font-size:192px;white-space:pre;shape-inside:url(#rect4946);stroke-width:2">
      <path
         id="path6952"
         style="font-family:Gurajada;-inkscape-font-specification:Gurajada;stroke-width:4.19968"
         d="m 1248.5109,37.188238 c -5.0239,0 -9.172,1.63596 -12.4375,4.9015 -3.2656,3.26555 -4.8893,7.02765 -4.8893,11.29797 0,5.27511 1.6237,9.92565 4.8893,13.94478 3.2655,3.76794 7.1685,5.64898 11.6901,5.64898 5.0239,0 9.1597,-1.88104 12.4253,-5.64898 2.7631,-4.01913 4.154,-8.66967 4.154,-13.94478 0,-4.27032 -1.3909,-8.03242 -4.154,-11.29797 -3.2656,-3.26554 -7.1563,-4.9015 -11.6779,-4.9015 z m -949.5192,6.40872 v 7.53606 h 7.15619 c 6.2799,0 11.80662,2.25481 16.57934,6.77633 4.77272,5.02391 7.16845,10.67931 7.16845,16.9592 V 231.23878 c 0,7.28467 -2.39573,13.55892 -7.16845,18.83403 -4.77272,5.27511 -10.29944,7.91593 -16.57934,7.91593 h -7.15619 v 6.78858 0.36761 h 123.21155 c 18.83968,0 35.0461,-6.14557 48.61067,-18.45416 13.06218,-13.06218 19.59376,-28.50883 19.59376,-46.34372 0,-12.55979 -5.02429,-23.74191 -15.07212,-33.53854 -9.79663,-10.04783 -20.72141,-16.20566 -32.77881,-18.46642 8.79185,-1.50718 17.07581,-7.27899 24.86288,-17.32682 8.28946,-10.04783 12.43757,-21.60371 12.43757,-34.665887 0,-15.574125 -6.78893,-28.263535 -20.3535,-38.060175 -13.06217,-9.79663 -29.51368,-14.69225 -49.35815,-14.69225 z m 686.89677,0 v 7.53606 h 7.1562 c 6.27986,0 11.80663,2.25481 16.57933,6.77633 4.7726,5.02391 7.1561,10.67931 7.1561,16.9592 V 234.2532 c 0,6.53109 -2.3835,12.05782 -7.1561,16.57934 -4.7727,4.77272 -10.29947,7.1562 -16.57933,7.1562 h -7.1562 v 6.78858 0.36761 h 93.44703 v -7.15619 h -6.7886 c -5.7775,0 -10.6731,-2.38348 -14.6922,-7.1562 -4.0191,-4.52152 -6.0289,-10.04825 -6.0289,-16.57934 v -70.07925 h 20.3535 l 76.488,100.97098 h 56.1345 v -7.15619 c -4.5216,0 -9.4172,-1.50729 -14.6923,-4.52164 -6.0287,-3.51674 -11.9292,-8.03861 -17.7067,-13.56492 l -64.8101,-81.75708 c 17.0813,-3.26555 31.3944,-10.18315 42.9494,-20.73337 11.8062,-10.80141 17.719,-22.85972 17.719,-36.17309 0,-16.830112 -6.789,-30.640802 -20.3535,-41.442212 -13.3134,-10.80142 -30.2673,-16.19947 -50.8654,-16.19947 z m -600.22593,10.55048 c 16.57892,0 30.76337,4.65054 42.56957,13.94478 11.80619,9.79664 17.70668,21.22385 17.70668,34.286012 0,12.0574 -5.0243,22.10599 -15.07213,30.14426 -10.29902,8.03826 -23.47861,12.05769 -39.55513,12.05769 H 364.92918 V 65.825278 c 0,-3.01435 1.76463,-5.77159 5.28137,-8.28354 4.52152,-2.26076 9.67449,-3.3943 15.45199,-3.3943 z m 686.88436,3.01443 c 15.8254,0 29.391,4.3932 40.6948,13.18505 11.3038,8.54065 16.9592,18.83433 16.9592,30.891722 0,13.56456 -6.2743,25.12045 -18.834,34.66588 -12.3086,10.04783 -27.2651,15.07213 -44.8488,15.07213 h -15.8074 l 1.1151,-82.136952 c 0,-3.26554 1.7647,-6.02278 5.2814,-8.28354 4.5215,-2.26076 9.6622,-3.39429 15.4397,-3.39429 z m 191.0362,53.120042 -53.8798,18.08655 v 5.28137 h 15.8318 c 2.7632,0 4.8893,0.87619 6.3965,2.63456 1.5072,1.75837 2.2669,3.63942 2.2669,5.64898 v 98.34868 c 0,5.02391 -1.6359,9.28844 -4.9015,12.80518 -3.5167,3.26555 -7.6648,4.90151 -12.4375,4.90151 h -7.1562 v 6.78858 0.36761 h 74.9807 v -7.15619 h -6.7763 c -3.7679,0 -7.1685,-1.63596 -10.1829,-4.90151 -2.7631,-3.51674 -4.1417,-7.78127 -4.1417,-12.80518 z m -681.99519,0.37987 c -18.08609,0 -33.40407,7.53644 -45.96385,22.60818 -12.81098,15.57414 -19.22615,33.79028 -19.22615,54.63952 0,22.35642 6.41517,41.44875 19.22615,57.27408 12.55978,15.57413 27.74909,23.35567 45.58399,23.35567 17.3325,0 32.7914,-5.0243 46.35597,-15.07213 13.56457,-10.55022 22.59605,-24.11583 27.11757,-40.69474 l -6.02885,-4.14177 c -6.27989,11.05261 -14.06142,19.33657 -23.35566,24.86288 -8.79185,6.02869 -18.20935,9.04327 -28.25718,9.04327 -15.07174,0 -27.88982,-5.77181 -38.44004,-17.32681 -10.80142,-12.0574 -16.19947,-26.12543 -16.19947,-42.20195 h 104.37753 c 0,-20.59805 -6.40292,-37.68066 -19.2139,-51.24523 -12.55978,-14.06696 -27.89002,-21.10097 -45.97611,-21.10097 z m 161.65161,0 c -18.0861,0 -33.41632,7.53644 -45.97611,22.60818 -12.81098,15.57414 -19.2139,33.79028 -19.2139,54.63952 0,22.35642 6.40292,41.44875 19.2139,57.27408 12.55979,15.57413 27.76133,23.35567 45.59623,23.35567 17.33251,0 32.77917,-5.0243 46.34373,-15.07213 13.56455,-10.55022 22.60829,-24.11583 27.12982,-40.69474 l -6.02883,-4.14177 c -6.27989,11.05261 -14.07369,19.33657 -23.36794,24.86288 -8.79185,6.02869 -18.20934,9.04327 -28.25716,9.04327 -15.07176,0 -27.87758,-5.77181 -38.42779,-17.32681 -10.80142,-12.0574 -16.19948,-26.12543 -16.19948,-42.20195 h 104.36528 c 0,-20.59805 -6.40292,-37.68066 -19.2139,-51.24523 -12.55978,-14.06696 -27.87777,-21.10097 -45.96385,-21.10097 z m 605.12728,0 -50.4977,15.45199 v 7.53606 h 10.1829 c 3.0143,0 5.7715,1.37862 8.2835,4.14177 2.0095,3.26554 3.0144,6.78255 3.0144,10.55049 v 91.93996 c 0,5.02391 -1.5073,9.28844 -4.5216,12.80518 -2.7632,3.26555 -6.0228,4.90151 -9.7908,4.90151 h -7.1684 v 6.78858 0.36761 h 71.9663 v -7.15619 h -6.7763 c -3.7679,0 -7.285,-1.63596 -10.5505,-4.90151 -2.7632,-3.51674 -4.1418,-7.78127 -4.1418,-12.80518 v -89.67302 c 5.7775,-6.53108 11.4207,-11.68405 16.947,-15.45199 6.0287,-3.76793 11.439,-5.64898 16.2117,-5.64898 6.5311,0 12.0578,2.38348 16.5793,7.1562 4.7728,5.02391 7.1562,11.05307 7.1562,18.08655 v 85.53124 c 0,5.02391 -1.1335,9.28844 -3.3943,12.80518 -2.2607,3.26555 -5.018,4.90151 -8.2835,4.90151 h -6.7886 v 7.15619 h 68.9519 v -7.15619 h -7.1562 c -4.0191,0 -7.4074,-1.63596 -10.1706,-4.90151 -2.7631,-3.51674 -4.1418,-7.78127 -4.1418,-12.80518 v -85.53124 c 0,-12.30859 -3.7743,-22.61453 -11.3102,-30.90399 -7.787,-8.79185 -16.9594,-13.18504 -27.5097,-13.18504 -8.5406,0 -17.0819,2.26706 -25.6226,6.78858 -8.5406,4.27033 -15.6911,9.79705 -21.4686,16.57934 z m 185.0073,0 c -15.0717,0 -28.1349,4.89562 -39.1875,14.69225 -11.0527,10.04783 -16.5794,21.73239 -16.5794,35.04576 0,11.8062 2.8859,22.22855 8.6634,31.27159 5.5263,9.29425 12.689,15.3234 21.4809,18.08655 -8.5407,5.77751 -15.3296,11.93533 -20.3535,18.46642 -5.5263,6.53109 -8.2835,12.56025 -8.2835,18.08655 0,4.27033 1.7523,8.03243 5.2691,11.29797 2.7631,3.26555 6.2801,5.7777 10.5504,7.53606 -9.2942,5.52631 -17.0757,11.81281 -23.3556,18.84629 -6.0287,7.03348 -9.0433,13.93882 -9.0433,20.72111 0,9.54543 5.9005,17.71298 17.7067,24.49526 11.3038,6.53109 24.8694,9.79076 40.6947,9.79076 27.3804,0 49.3586,-5.26939 65.9375,-15.81961 16.0765,-10.80141 24.1154,-25.12679 24.1154,-42.96168 0,-11.30381 -6.0291,-20.0902 -18.0865,-26.37009 -11.8062,-5.52631 -29.52,-8.2958 -53.1323,-8.2958 -10.8015,0 -19.9616,-1.12128 -27.4975,-3.38204 -7.5358,-2.26076 -11.3102,-4.90158 -11.3102,-7.91593 0,-2.51196 4.1481,-8.03868 12.4376,-16.57934 l 4.9015,-4.9015 c 4.0191,1.50717 11.1695,2.26695 21.4686,2.26695 14.5693,0 27.1301,-5.0243 37.6803,-15.07213 10.299,-10.04783 15.452,-22.23481 15.452,-36.55297 0,-7.28467 -0.8762,-13.68759 -2.6346,-19.21389 -0.7536,-5.7775 -2.2609,-9.66827 -4.5216,-11.67783 h 25.2427 v -12.43757 h -34.286 c -10.299,-6.2799 -24.7408,-9.42314 -43.3293,-9.42314 z m -953.67326,10.93035 c 8.54065,0 16.20577,4.76696 22.98805,14.31239 7.28468,9.79664 12.1803,21.85495 14.69226,36.1731 h -74.36807 c 3.62679,-15.80792 8.39697,-28.02013 14.45943,-36.1731 6.53109,-9.54543 13.93887,-14.31239 22.22833,-14.31239 z m 161.6516,0 c 8.54064,0 16.19351,4.76696 22.97581,14.31239 7.28466,9.79664 12.19254,21.85495 14.70449,36.1731 h -74.38032 c 3.62683,-15.80832 8.40913,-28.01999 14.47171,-36.1731 6.53107,-9.54543 13.93885,-14.31239 22.22831,-14.31239 z m 789.37486,1.88708 c 9.7966,0 18.2215,5.14071 25.255,15.43974 7.2847,9.79663 10.9181,22.11228 10.9181,36.93283 0,8.03826 -2.2548,14.69852 -6.7763,19.97363 -5.024,5.5263 -10.9244,8.28354 -17.7067,8.28354 -9.5455,0 -17.8417,-4.89562 -24.8752,-14.69226 -7.2846,-10.29902 -10.9303,-22.85976 -10.9303,-37.68031 0,-7.78707 2.3957,-14.57599 7.1684,-20.3535 4.7728,-5.2751 10.4159,-7.90367 16.947,-7.90367 z M 364.92918,155.49828 h 27.12983 c 17.5837,0 31.90907,4.52187 42.96168,13.56492 11.30381,9.04304 16.94695,20.48251 16.94695,34.29827 0,14.06696 -5.77181,25.86793 -17.32682,35.41337 -12.05739,9.79664 -26.49918,14.69226 -43.32929,14.69226 -7.03348,0 -13.31998,-1.24994 -18.84629,-3.7619 -5.02391,-2.76315 -7.53606,-5.90641 -7.53606,-9.42315 z m 481.92814,18.84629 v 22.60819 h 114.5359 v -22.60819 z m 659.38698,92.68744 45.9638,1.50722 c 15.8254,0 28.1288,1.63596 36.9206,4.9015 7.7871,3.51674 11.6901,8.2837 11.6901,14.31239 0,7.53587 -6.4152,14.69856 -19.2262,21.48084 -12.8109,6.53109 -26.9954,9.80301 -42.5695,9.80301 -13.3134,0 -24.7406,-2.26706 -34.2861,-6.78858 -10.0478,-5.02392 -15.0721,-10.67931 -15.0721,-16.9592 0,-2.51196 1.3786,-6.27406 4.1418,-11.29797 3.2656,-5.02392 7.4136,-10.67931 12.4376,-16.95921 z" />
    </g>
  </g>
</svg>
