<svg width="93" height="93" viewBox="0 0 93 93" fill="none" xmlns="http://www.w3.org/2000/svg">
<path d="M92.9923 93H1.97018H0V91.0221L0.000130413 0H3.94047L3.94028 89.0442H92.9923V93Z" fill="white"/>
<path d="M19.5977 58.173C21.5091 58.173 23.2397 58.9479 24.4924 60.2007C25.7452 61.4534 26.5201 63.1841 26.5201 65.0954C26.5201 67.0067 25.7452 68.7373 24.4924 69.9902C23.2396 71.2429 21.509 72.0178 19.5977 72.0178C17.6864 72.0178 15.9558 71.2429 14.7029 69.9902C13.4502 68.7373 12.6753 67.0067 12.6753 65.0954C12.6753 63.1841 13.4502 61.4535 14.7029 60.2007C15.9558 58.9479 17.6864 58.173 19.5977 58.173ZM21.6956 62.9975C21.1589 62.4608 20.417 62.1288 19.5977 62.1288C18.7783 62.1288 18.0365 62.4608 17.4997 62.9975C16.9631 63.5342 16.631 64.276 16.631 65.0954C16.631 65.9149 16.963 66.6567 17.4997 67.1934C18.0364 67.7301 18.7782 68.0621 19.5977 68.0621C20.4171 68.0621 21.159 67.7301 21.6956 67.1934C22.2324 66.6566 22.5644 65.9149 22.5644 65.0954C22.5644 64.2761 22.2323 63.5343 21.6956 62.9975Z" fill="#FFD233"/>
<path d="M45.3095 66.0842C47.2209 66.0842 48.9515 66.8591 50.2043 68.1119C51.4571 69.3647 52.232 71.0953 52.232 73.0066C52.232 74.9179 51.4571 76.6485 50.2043 77.9014C48.9515 79.1541 47.2208 79.929 45.3095 79.929C43.3982 79.929 41.6676 79.1541 40.4148 77.9014C39.162 76.6485 38.3871 74.9179 38.3871 73.0066C38.3871 71.0953 39.162 69.3647 40.4148 68.1119C41.6676 66.8591 43.3983 66.0842 45.3095 66.0842ZM47.4075 70.9087C46.8707 70.372 46.129 70.04 45.3095 70.04C44.4901 70.04 43.7484 70.372 43.2116 70.9087C42.675 71.4454 42.3429 72.1872 42.3429 73.0066C42.3429 73.8261 42.6749 74.5679 43.2116 75.1046C43.7483 75.6413 44.4901 75.9733 45.3095 75.9733C46.129 75.9733 46.8708 75.6413 47.4075 75.1046C47.9442 74.5679 48.2762 73.8261 48.2762 73.0066C48.2762 72.1872 47.9441 71.4454 47.4075 70.9087Z" fill="#FFD233"/>
<path d="M60.5321 40.6332C62.4434 40.6332 64.174 41.4081 65.4269 42.6609C66.6796 43.9137 67.4545 45.6444 67.4545 47.5557C67.4545 49.467 66.6796 51.1976 65.4269 52.4504C64.174 53.7032 62.4434 54.4781 60.5321 54.4781C58.6208 54.4781 56.8902 53.7032 55.6374 52.4504C54.3846 51.1976 53.6097 49.467 53.6097 47.5557C53.6097 45.6444 54.3846 43.9137 55.6374 42.6609C56.8902 41.4081 58.6208 40.6332 60.5321 40.6332ZM62.6301 45.4577C62.0934 44.921 61.3515 44.589 60.5321 44.589C59.7127 44.589 58.9708 44.9211 58.4342 45.4577C57.8974 45.9945 57.5654 46.7362 57.5654 47.5557C57.5654 48.3751 57.8974 49.1169 58.4342 49.6537C58.9708 50.1903 59.7127 50.5224 60.5321 50.5224C61.3515 50.5224 62.0934 50.1904 62.6301 49.6537C63.1668 49.117 63.4988 48.3751 63.4988 47.5557C63.4988 46.7363 63.1667 45.9944 62.6301 45.4577Z" fill="#FFD233"/>
<path d="M80.9105 22.5721C82.8218 22.5721 84.5524 23.347 85.8052 24.5997C87.058 25.8526 87.8329 27.5832 87.8329 29.4945C87.8329 31.4058 87.058 33.1364 85.8052 34.3892C84.5524 35.642 82.8217 36.4169 80.9105 36.4169C78.9991 36.4169 77.2685 35.642 76.0158 34.3892C74.7629 33.1365 73.988 31.4059 73.988 29.4945C73.988 27.5832 74.7629 25.8526 76.0158 24.5997C77.2685 23.347 78.9992 22.5721 80.9105 22.5721ZM83.0084 27.3965C82.4717 26.8598 81.7299 26.5278 80.9105 26.5278C80.091 26.5278 79.3492 26.8599 78.8126 27.3965C78.2758 27.9333 77.9438 28.6751 77.9438 29.4945C77.9438 30.3139 78.2759 31.0557 78.8126 31.5924C79.3493 32.1291 80.0911 32.4612 80.9105 32.4612C81.7299 32.4612 82.4716 32.1292 83.0084 31.5924C83.5451 31.0558 83.8771 30.3139 83.8771 29.4945C83.8771 28.6751 83.5451 27.9332 83.0084 27.3965Z" fill="#FFD233"/>
<path d="M34.4314 26.5276C35.5238 26.5276 36.4093 25.6421 36.4093 24.5498C36.4093 23.4575 35.5238 22.5719 34.4314 22.5719C33.3391 22.5719 32.4536 23.4575 32.4536 24.5498C32.4536 25.6421 33.3391 26.5276 34.4314 26.5276Z" fill="white"/>
<path d="M62.1212 70.0399C63.2135 70.0399 64.099 69.1544 64.099 68.0621C64.099 66.9698 63.2135 66.0843 62.1212 66.0843C61.0289 66.0843 60.1434 66.9698 60.1434 68.0621C60.1434 69.1544 61.0289 70.0399 62.1212 70.0399Z" fill="white"/>
<path d="M29.487 44.3283C31.1255 44.3283 32.4537 43.0001 32.4537 41.3616C32.4537 39.7231 31.1255 38.3948 29.487 38.3948C27.8485 38.3948 26.5202 39.7231 26.5202 41.3616C26.5202 43.0001 27.8485 44.3283 29.487 44.3283Z" fill="white"/>
<path d="M78.9326 64.1065C80.5711 64.1065 81.8994 62.7782 81.8994 61.1397C81.8994 59.5013 80.5711 58.173 78.9326 58.173C77.2941 58.173 75.9659 59.5013 75.9659 61.1397C75.9659 62.7782 77.2941 64.1065 78.9326 64.1065Z" fill="white"/>
<path d="M13.6642 24.55C15.3027 24.55 16.631 23.2217 16.631 21.5832C16.631 19.9447 15.3027 18.6165 13.6642 18.6165C12.0257 18.6165 10.6975 19.9447 10.6975 21.5832C10.6975 23.2217 12.0257 24.55 13.6642 24.55Z" fill="white"/>
<path d="M24.7023 65.0175L41.1485 69.4244L40.1286 73.2409L23.6825 68.8342L24.7023 65.0175Z" fill="#FFD233"/>
<path d="M46.5843 67.0423L56.3735 50.8222L59.7574 52.8618L49.9683 69.0819L46.5843 67.0423Z" fill="#FFD233"/>
<path d="M62.9798 42.6873L75.6842 32.6874L78.1256 35.7934L65.4213 45.7933L62.9798 42.6873Z" fill="#FFD233"/>
</svg>
